<svg width="363" height="529" viewBox="0 0 363 529" fill="none" xmlns="http://www.w3.org/2000/svg">
<g id="Frame 1">
<rect x="1.625" y="1.625" width="359.75" height="525.75" fill="#292C3C"/>
<g id="Rek10">
<g id="Rectangle 1">
<mask id="path-2-inside-1_6_5" fill="white">
<rect x="255.625" y="433.875" width="90" height="90" rx="0.75"/>
</mask>
<rect x="255.625" y="433.875" width="90" height="90" rx="0.75" fill="#BA93D6" stroke="black" stroke-width="2.5" mask="url(#path-2-inside-1_6_5)"/>
</g>
<line id="Line 1" x1="256.568" y1="434.684" x2="344.568" y2="522.934" stroke="black" stroke-width="1.25"/>
<line id="Line 4" x1="323.5" y1="433.875" x2="323.5" y2="523.875" stroke="black" stroke-width="1.25"/>
<line id="Line 3" x1="278.75" y1="433.875" x2="278.75" y2="523.875" stroke="black" stroke-width="1.25"/>
<line id="Line 2" x1="256.433" y1="522.933" x2="344.683" y2="434.683" stroke="black" stroke-width="1.25"/>
<line id="Line 6" x1="255.625" y1="500.75" x2="345.625" y2="500.75" stroke="black" stroke-width="1.25"/>
<line id="Line 5" x1="255.625" y1="455.75" x2="345.625" y2="455.75" stroke="black" stroke-width="1.25"/>
</g>
<g id="Rek9">
<g id="Rectangle 1_2">
<mask id="path-9-inside-2_6_5" fill="white">
<rect x="255.625" y="327.125" width="90" height="90" rx="0.75"/>
</mask>
<rect x="255.625" y="327.125" width="90" height="90" rx="0.75" fill="#ACADDF" stroke="black" stroke-width="2.5" mask="url(#path-9-inside-2_6_5)"/>
</g>
<line id="Line 1_2" x1="301.25" y1="327.125" x2="301.25" y2="417.125" stroke="black" stroke-width="1.25"/>
<line id="Line 4_2" x1="301.937" y1="328.103" x2="344.687" y2="416.353" stroke="black" stroke-width="1.25"/>
<line id="Line 3_2" x1="278.75" y1="327.125" x2="278.75" y2="417.125" stroke="black" stroke-width="1.25"/>
<line id="Line 2_2" x1="322.815" y1="371.847" x2="344.565" y2="328.097" stroke="black" stroke-width="1.25"/>
<line id="Line 5_2" x1="255.625" y1="349" x2="278.125" y2="349" stroke="black" stroke-width="1.25"/>
</g>
<g id="Rek8">
<g id="Rectangle 1_3">
<mask id="path-15-inside-3_6_5" fill="white">
<rect x="255.625" y="220.375" width="90" height="90" rx="0.75"/>
</mask>
<rect x="255.625" y="220.375" width="90" height="90" rx="0.75" fill="#839EDD" stroke="black" stroke-width="2.5" mask="url(#path-15-inside-3_6_5)"/>
</g>
<line id="Line 1_3" x1="301.25" y1="220.375" x2="301.25" y2="310.375" stroke="black" stroke-width="1.25"/>
<line id="Line 3_3" x1="278.75" y1="220.375" x2="278.75" y2="310.375" stroke="black" stroke-width="1.25"/>
<line id="Line 2_3" x1="278.125" y1="264.75" x2="345.625" y2="264.75" stroke="black" stroke-width="1.25"/>
<line id="Line 4_3" x1="256.379" y1="242.25" x2="300.879" y2="242.5" stroke="black" stroke-width="1.25"/>
</g>
<g id="Rek7">
<g id="Rectangle 1_4">
<mask id="path-20-inside-4_6_5" fill="white">
<rect x="255.625" y="113.625" width="90" height="90" rx="0.75"/>
</mask>
<rect x="255.625" y="113.625" width="90" height="90" rx="0.75" fill="#7CB2CD" stroke="black" stroke-width="2.5" mask="url(#path-20-inside-4_6_5)"/>
</g>
<line id="Line 1_4" x1="301.071" y1="114.063" x2="256.821" y2="159.063" stroke="black" stroke-width="1.25"/>
<line id="Line 2_4" x1="255.934" y1="203.182" x2="344.684" y2="114.682" stroke="black" stroke-width="1.25"/>
</g>
<g id="Rek6">
<g id="Rectangle 1_5">
<mask id="path-23-inside-5_6_5" fill="white">
<rect x="255.625" y="6.875" width="90" height="90" rx="0.75"/>
</mask>
<rect x="255.625" y="6.875" width="90" height="90" rx="0.75" fill="#8EC1CC" stroke="black" stroke-width="2.5" mask="url(#path-23-inside-5_6_5)"/>
</g>
<path id="Line 1_5" d="M300.625 51.875V95.625" stroke="black" stroke-width="1.25" stroke-linecap="round"/>
<line id="Line 2_5" x1="255.933" y1="96.4331" x2="344.683" y2="7.68306" stroke="black" stroke-width="1.25"/>
</g>
<g id="Rek5">
<g id="Rectangle 1_6">
<mask id="path-26-inside-6_6_5" fill="white">
<rect x="49.375" y="433.875" width="90" height="90" rx="0.75"/>
</mask>
<rect x="49.375" y="433.875" width="90" height="90" rx="0.75" fill="#79B9B2" stroke="black" stroke-width="2.5" mask="url(#path-26-inside-6_6_5)"/>
</g>
<line id="Line 1_6" x1="95" y1="433.875" x2="95" y2="478.875" stroke="black" stroke-width="1.25"/>
<line id="Line 2_6" x1="49.375" y1="478.25" x2="94.375" y2="478.25" stroke="black" stroke-width="1.25"/>
</g>
<g id="Rek4">
<g id="Rectangle 1_7">
<mask id="path-29-inside-7_6_5" fill="white">
<rect x="49.375" y="327.125" width="90" height="90" rx="0.75"/>
</mask>
<rect x="49.375" y="327.125" width="90" height="90" rx="0.75" fill="#9AC182" stroke="black" stroke-width="2.5" mask="url(#path-29-inside-7_6_5)"/>
</g>
<line id="Line 1_7" x1="95" y1="327.125" x2="95" y2="372.125" stroke="black" stroke-width="1.25"/>
<line id="Line 2_7" x1="49.375" y1="371.5" x2="94.375" y2="371.5" stroke="black" stroke-width="1.25"/>
</g>
<g id="Rek3">
<g id="Rectangle 1_8">
<mask id="path-32-inside-8_6_5" fill="white">
<rect x="49.375" y="220.375" width="90" height="90" rx="0.75"/>
</mask>
<rect x="49.375" y="220.375" width="90" height="90" rx="0.75" fill="#DC9471" stroke="black" stroke-width="2.5" mask="url(#path-32-inside-8_6_5)"/>
</g>
<line id="Line 1_8" x1="94.8256" y1="264.192" x2="138.326" y2="309.442" stroke="black" stroke-width="1.25"/>
<line id="Line 2_8" x1="51.1237" y1="308.491" x2="137.491" y2="221.876" stroke="black" stroke-width="1.25" stroke-linecap="round"/>
</g>
<g id="Rek2">
<g id="Rectangle 1_9">
<mask id="path-35-inside-9_6_5" fill="white">
<rect x="49.375" y="113.625" width="90" height="90" rx="0.75"/>
</mask>
<rect x="49.375" y="113.625" width="90" height="90" rx="0.75" fill="#D78E93" fill-opacity="0.576471" stroke="black" stroke-width="2.5" mask="url(#path-35-inside-9_6_5)"/>
</g>
<line id="Line 1_9" x1="95" y1="113.625" x2="95" y2="203.625" stroke="black" stroke-width="1.25"/>
<line id="Line 2_9" x1="94.375" y1="158" x2="139.375" y2="158" stroke="black" stroke-width="1.25"/>
</g>
<g id="Rek1">
<g id="Rectangle 1_10">
<mask id="path-38-inside-10_6_5" fill="white">
<rect x="49.375" y="6.875" width="90" height="90" rx="0.75"/>
</mask>
<rect x="49.375" y="6.875" width="90" height="90" rx="0.75" fill="#D47A7E" stroke="black" stroke-width="2.5" mask="url(#path-38-inside-10_6_5)"/>
</g>
<line id="Line 1_10" x1="95" y1="6.875" x2="95" y2="96.875" stroke="black" stroke-width="1.25"/>
<line id="Line 2_10" x1="49.375" y1="51.25" x2="139.375" y2="51.25" stroke="black" stroke-width="1.25"/>
</g>
<line id="Line 3_4" x1="94.8243" y1="477.941" x2="138.574" y2="523.191" stroke="black" stroke-width="1.25"/>
<path id="1." d="M18.228 16.592C20.388 16.592 21.468 19.208 21.468 24.44C21.468 26.84 21.204 31.976 20.676 39.848C20.652 40.088 20.436 40.316 20.028 40.532C19.62 40.724 19.332 40.82 19.164 40.82C18.612 40.82 18.3 40.7 18.228 40.46C18.204 39.908 18.192 39.008 18.192 37.76C18.192 36.512 18.276 34.232 18.444 30.92C18.612 27.608 18.696 25.136 18.696 23.504C18.696 20.168 18.3 18.5 17.508 18.5C16.956 18.5 16.104 19.004 14.952 20.012C14.64 20.324 14.184 20.48 13.584 20.48C12.984 20.48 12.66 20.324 12.612 20.012C12.612 19.388 13.308 18.668 14.7 17.852C16.116 17.012 17.292 16.592 18.228 16.592ZM28.1241 42.08C27.6921 42.08 27.2241 41.912 26.7201 41.576C26.2161 41.264 25.9641 40.88 25.9641 40.424C25.9641 39.968 26.2281 39.536 26.7561 39.128C27.2841 38.696 27.8241 38.48 28.3761 38.48C28.9281 38.48 29.3961 38.636 29.7801 38.948C30.1641 39.26 30.3561 39.656 30.3561 40.136C30.3561 40.592 30.0921 41.024 29.5641 41.432C29.0601 41.864 28.5801 42.08 28.1241 42.08Z" fill="white"/>
<path id="6." d="M226.208 21.38C224.936 22.7 223.976 24.308 223.328 26.204C222.68 28.1 222.356 29.9 222.356 31.604C222.356 33.284 222.572 34.7 223.004 35.852C224.324 34.22 226.064 32.624 228.224 31.064C230.384 29.48 232.304 28.688 233.984 28.688C234.992 28.688 235.904 29.12 236.72 29.984C237.56 30.848 237.98 31.94 237.98 33.26C237.98 34.58 237.38 35.888 236.18 37.184C234.98 38.456 233.552 39.452 231.896 40.172C230.24 40.892 228.656 41.252 227.144 41.252C225.632 41.252 224.3 40.784 223.148 39.848C220.94 38.096 219.836 35.564 219.836 32.252C219.836 29.972 220.316 27.704 221.276 25.448C222.236 23.168 223.604 21.26 225.38 19.724C227.156 18.188 229.088 17.42 231.176 17.42C231.968 17.42 232.364 17.696 232.364 18.248C232.364 18.656 232.076 18.968 231.5 19.184C231.164 19.304 230.816 19.364 230.456 19.364C228.896 19.364 227.48 20.036 226.208 21.38ZM227.54 39.2C228.332 39.2 229.352 38.936 230.6 38.408C231.848 37.856 233 37.1 234.056 36.14C235.136 35.156 235.676 34.172 235.676 33.188C235.676 32.516 235.484 31.988 235.1 31.604C234.74 31.22 234.272 31.028 233.696 31.028C232.304 31.028 230.6 31.844 228.584 33.476C226.592 35.108 225.14 36.536 224.228 37.76C225.236 38.72 226.34 39.2 227.54 39.2ZM242.878 42.08C242.446 42.08 241.978 41.912 241.474 41.576C240.97 41.264 240.718 40.88 240.718 40.424C240.718 39.968 240.982 39.536 241.51 39.128C242.038 38.696 242.578 38.48 243.13 38.48C243.682 38.48 244.15 38.636 244.534 38.948C244.918 39.26 245.11 39.656 245.11 40.136C245.11 40.592 244.846 41.024 244.318 41.432C243.814 41.864 243.334 42.08 242.878 42.08Z" fill="white"/>
<path id="2." d="M28.344 145.156C29.856 145.444 30.804 145.624 31.188 145.696C31.596 145.744 31.8 145.924 31.8 146.236C31.8 146.356 31.764 146.5 31.692 146.668C31.356 147.196 30.948 147.496 30.468 147.568C30.348 147.568 28.836 147.316 25.932 146.812C23.028 146.308 20.988 146.056 19.812 146.056C18.636 146.056 17.664 146.128 16.896 146.272C16.776 146.368 16.56 146.572 16.248 146.884C15.936 147.172 15.672 147.4 15.456 147.568C14.856 148.024 14.232 148.252 13.584 148.252C12.936 148.252 12.612 148.024 12.612 147.568C12.612 146.8 12.912 146.164 13.512 145.66C14.136 145.132 14.916 144.736 15.852 144.472C18.564 141.808 20.388 139.924 21.324 138.82C24.156 135.412 25.572 132.052 25.572 128.74C25.572 126.556 24.252 125.464 21.612 125.464C20.052 125.464 18.48 125.872 16.896 126.688C16.56 126.832 16.2 126.82 15.816 126.652C15.432 126.484 15.24 126.208 15.24 125.824C15.24 125.272 16.08 124.756 17.76 124.276C19.44 123.796 21 123.556 22.44 123.556C23.904 123.556 25.2 124.012 26.328 124.924C27.456 125.812 28.02 127.132 28.02 128.884C28.02 133.708 25.104 138.772 19.272 144.076C21.576 144.076 24.6 144.436 28.344 145.156ZM36.4209 149.08C35.9889 149.08 35.5209 148.912 35.0169 148.576C34.5129 148.264 34.2609 147.88 34.2609 147.424C34.2609 146.968 34.5249 146.536 35.0529 146.128C35.5809 145.696 36.1209 145.48 36.6729 145.48C37.2249 145.48 37.6929 145.636 38.0769 145.948C38.4609 146.26 38.6529 146.656 38.6529 147.136C38.6529 147.592 38.3889 148.024 37.8609 148.432C37.3569 148.864 36.8769 149.08 36.4209 149.08Z" fill="white"/>
<path id="7." d="M219.044 126.328C219.044 125.896 219.236 125.572 219.62 125.356C220.028 125.14 220.544 125.032 221.168 125.032C221.816 125.032 223.064 124.924 224.912 124.708C226.784 124.468 228.296 124.348 229.448 124.348C230.624 124.348 231.74 124.66 232.796 125.284C233.876 125.884 234.416 126.832 234.416 128.128C234.416 128.992 233.924 130.408 232.94 132.376L225.884 147.064C225.668 147.52 225.116 147.748 224.228 147.748C223.676 147.748 223.4 147.568 223.4 147.208C223.4 147.064 223.436 146.92 223.508 146.776C225.14 143.104 227.156 139.012 229.556 134.5C229.58 134.428 229.712 134.176 229.952 133.744C230.192 133.312 230.36 133.012 230.456 132.844L230.888 131.98C231.608 130.516 231.968 129.316 231.968 128.38C231.968 126.988 230.672 126.292 228.08 126.292C227.24 126.292 225.98 126.388 224.3 126.58C222.644 126.772 221.348 126.868 220.412 126.868C219.5 126.868 219.044 126.688 219.044 126.328ZM237.429 149.08C236.997 149.08 236.529 148.912 236.025 148.576C235.521 148.264 235.269 147.88 235.269 147.424C235.269 146.968 235.533 146.536 236.061 146.128C236.589 145.696 237.129 145.48 237.681 145.48C238.233 145.48 238.701 145.636 239.085 145.948C239.469 146.26 239.661 146.656 239.661 147.136C239.661 147.592 239.397 148.024 238.869 148.432C238.365 148.864 237.885 149.08 237.429 149.08Z" fill="white"/>
<path id="3." d="M14.376 232.868C14.376 232.388 15.396 231.812 17.436 231.14C19.5 230.468 21.276 230.132 22.764 230.132C24.276 230.132 25.548 230.492 26.58 231.212C27.636 231.932 28.164 233.024 28.164 234.488C28.164 236.912 26.556 239.168 23.34 241.256C24.9 241.52 26.22 242.12 27.3 243.056C28.404 243.968 28.956 245.096 28.956 246.44C28.956 248.504 28.02 250.304 26.148 251.84C24.3 253.376 22.284 254.144 20.1 254.144C18.972 254.144 17.82 253.88 16.644 253.352C15.468 252.8 14.448 252.068 13.584 251.156C13.488 251.06 13.44 250.952 13.44 250.832C13.44 250.592 13.656 250.352 14.088 250.112C14.52 249.872 14.868 249.752 15.132 249.752C15.396 249.752 15.612 249.824 15.78 249.968C17.076 251.456 18.732 252.2 20.748 252.2C22.116 252.2 23.376 251.756 24.528 250.868C25.68 249.956 26.256 248.696 26.256 247.088C26.256 245.864 25.8 244.856 24.888 244.064C24 243.248 22.932 242.84 21.684 242.84C20.892 242.84 20.1 243.056 19.308 243.488C18.996 243.632 18.648 243.62 18.264 243.452C17.904 243.284 17.724 243.032 17.724 242.696C17.724 242.36 17.904 242.108 18.264 241.94C23.256 239.516 25.752 237.116 25.752 234.74C25.752 233.924 25.38 233.324 24.636 232.94C23.892 232.532 22.932 232.328 21.756 232.328C19.74 232.328 17.94 232.748 16.356 233.588C16.212 233.684 16.044 233.732 15.852 233.732C15.66 233.732 15.432 233.696 15.168 233.624C14.64 233.456 14.376 233.204 14.376 232.868ZM34.8389 255.08C34.4069 255.08 33.9389 254.912 33.4349 254.576C32.9309 254.264 32.6789 253.88 32.6789 253.424C32.6789 252.968 32.9429 252.536 33.4709 252.128C33.9989 251.696 34.5389 251.48 35.0909 251.48C35.6429 251.48 36.1109 251.636 36.4949 251.948C36.8789 252.26 37.0709 252.656 37.0709 253.136C37.0709 253.592 36.8069 254.024 36.2789 254.432C35.7749 254.864 35.2949 255.08 34.8389 255.08Z" fill="white"/>
<path id="8." d="M230.096 229.34C230.936 229.34 231.944 229.496 233.12 229.808C234.296 230.12 235.4 230.636 236.432 231.356C237.488 232.052 238.016 232.82 238.016 233.66C238.016 234.476 237.752 235.304 237.224 236.144C236.72 236.984 235.976 237.824 234.992 238.664C233.432 240.008 231.476 241.412 229.124 242.876C229.268 242.972 229.604 243.176 230.132 243.488C230.66 243.776 231.044 244.004 231.284 244.172C231.548 244.316 231.944 244.556 232.472 244.892C233 245.204 233.408 245.468 233.696 245.684C234.008 245.9 234.368 246.176 234.776 246.512C235.208 246.824 235.544 247.124 235.784 247.412C236.048 247.676 236.312 247.964 236.576 248.276C237.032 248.852 237.26 249.452 237.26 250.076C237.26 251.132 236.384 252.032 234.632 252.776C232.88 253.496 230.744 253.856 228.224 253.856C222.92 253.856 220.268 252.512 220.268 249.824C220.268 248.768 220.7 247.736 221.564 246.728C222.452 245.72 223.772 244.604 225.524 243.38C221.852 241.268 220.016 239.18 220.016 237.116C220.016 235.028 221.072 233.216 223.184 231.68C225.32 230.12 227.624 229.34 230.096 229.34ZM233.624 248.492C232.376 247.388 230.576 246.188 228.224 244.892C227.576 244.532 227.18 244.304 227.036 244.208C225.86 244.976 224.876 245.852 224.084 246.836C223.316 247.82 222.932 248.72 222.932 249.536C222.932 250.352 223.46 251 224.516 251.48C225.572 251.96 226.904 252.2 228.512 252.2C230.144 252.2 231.584 252.032 232.832 251.696C234.104 251.36 234.74 250.904 234.74 250.328C234.74 249.752 234.368 249.14 233.624 248.492ZM222.5 236.648C222.548 238.064 223.112 239.192 224.192 240.032C225.032 240.656 226.136 241.328 227.504 242.048C230.6 239.936 232.604 238.46 233.516 237.62C234.908 236.324 235.604 235.148 235.604 234.092C235.604 233.276 234.824 232.592 233.264 232.04C231.704 231.488 230.384 231.212 229.304 231.212C227.384 231.212 225.764 231.68 224.444 232.616C223.148 233.552 222.5 234.896 222.5 236.648ZM243.546 255.08C243.114 255.08 242.646 254.912 242.142 254.576C241.638 254.264 241.386 253.88 241.386 253.424C241.386 252.968 241.65 252.536 242.178 252.128C242.706 251.696 243.246 251.48 243.798 251.48C244.35 251.48 244.818 251.636 245.202 251.948C245.586 252.26 245.778 252.656 245.778 253.136C245.778 253.592 245.514 254.024 244.986 254.432C244.482 254.864 244.002 255.08 243.546 255.08Z" fill="white"/>
<path id="4." d="M23.88 347.348L24.168 339.248C24.168 339.008 24.372 338.804 24.78 338.636C25.188 338.468 25.596 338.384 26.004 338.384C26.436 338.384 26.652 338.48 26.652 338.672C26.652 339.128 26.592 340.46 26.472 342.668C26.376 344.876 26.328 346.592 26.328 347.816C26.328 349.016 26.388 350.048 26.508 350.912C26.532 350.912 26.748 350.9 27.156 350.876C27.564 350.828 27.924 350.804 28.236 350.804C28.548 350.78 28.896 350.78 29.28 350.804C30.072 350.852 30.468 351.08 30.468 351.488C30.468 352.064 30.144 352.4 29.496 352.496C28.872 352.616 28.272 352.676 27.696 352.676C27.12 352.652 26.76 352.64 26.616 352.64C26.784 356.288 26.868 358.34 26.868 358.796C26.868 359.252 26.868 359.636 26.868 359.948C26.892 360.236 26.892 360.428 26.868 360.524C26.868 360.62 26.832 360.788 26.76 361.028C26.712 361.244 26.628 361.4 26.508 361.496C26.148 361.736 25.704 361.856 25.176 361.856C24.672 361.856 24.42 361.76 24.42 361.568C24.42 358.952 24.324 355.988 24.132 352.676C24.012 352.628 23.592 352.604 22.872 352.604L17.364 352.712C14.388 352.712 12.9 352.4 12.9 351.776C12.9 351.728 12.912 351.668 12.936 351.596C14.088 348.188 14.868 345.464 15.276 343.424C15.708 341.36 16.164 339.968 16.644 339.248C17.124 338.576 17.664 338.228 18.264 338.204C18.72 338.204 19.032 338.288 19.2 338.456C19.368 338.624 19.404 338.816 19.308 339.032C18.54 340.64 17.784 342.884 17.04 345.764C16.296 348.644 15.84 350.348 15.672 350.876L24.06 350.948C23.94 349.46 23.88 348.26 23.88 347.348ZM34.9795 363.08C34.5475 363.08 34.0795 362.912 33.5755 362.576C33.0715 362.264 32.8195 361.88 32.8195 361.424C32.8195 360.968 33.0835 360.536 33.6115 360.128C34.1395 359.696 34.6795 359.48 35.2315 359.48C35.7835 359.48 36.2515 359.636 36.6355 359.948C37.0195 360.26 37.2115 360.656 37.2115 361.136C37.2115 361.592 36.9475 362.024 36.4195 362.432C35.9155 362.864 35.4355 363.08 34.9795 363.08Z" fill="white"/>
<path id="9." d="M230.312 361.46C230.624 359.564 230.78 356.792 230.78 353.144C230.78 352.664 230.768 351.932 230.744 350.948C230.744 349.94 230.744 349.16 230.744 348.608C228.464 350.888 226.04 352.028 223.472 352.028C222.128 352.028 221.06 351.62 220.268 350.804C219.5 349.988 219.116 348.752 219.116 347.096C219.116 344.864 219.824 342.836 221.24 341.012C222.68 339.188 224.324 338.276 226.172 338.276C228.02 338.276 229.616 338.756 230.96 339.716C232.328 340.676 233.036 342.02 233.084 343.748C233.228 346.268 233.3 348.332 233.3 349.94C233.3 354.908 233.132 358.7 232.796 361.316C232.748 361.772 232.244 362 231.284 362C230.708 362 230.384 361.82 230.312 361.46ZM230.78 344C230.78 343.208 230.24 342.32 229.16 341.336C228.08 340.352 227.012 339.86 225.956 339.86H225.812C224.804 339.86 223.832 340.724 222.896 342.452C221.984 344.156 221.528 345.632 221.528 346.88C221.528 348.104 221.804 349.004 222.356 349.58C222.932 350.132 223.616 350.408 224.408 350.408C225.8 350.408 227.204 349.664 228.62 348.176C230.06 346.664 230.78 345.272 230.78 344ZM240.101 363.08C239.669 363.08 239.201 362.912 238.697 362.576C238.193 362.264 237.941 361.88 237.941 361.424C237.941 360.968 238.205 360.536 238.733 360.128C239.261 359.696 239.801 359.48 240.353 359.48C240.905 359.48 241.373 359.636 241.757 359.948C242.141 360.26 242.333 360.656 242.333 361.136C242.333 361.592 242.069 362.024 241.541 362.432C241.037 362.864 240.557 363.08 240.101 363.08Z" fill="white"/>
<path id="5." d="M28.38 447.436L20.208 447.292C19.416 447.292 18.756 447.304 18.228 447.328C18.468 448.384 18.588 449.608 18.588 451C18.588 452.368 18.288 453.916 17.688 455.644C19.368 455.476 20.856 455.38 22.152 455.356C23.448 455.332 24.552 455.416 25.464 455.608C26.376 455.776 27.288 456.064 28.2 456.472C29.136 456.856 29.892 457.432 30.468 458.2C31.068 458.968 31.368 459.868 31.368 460.9C31.368 463.012 30.396 464.884 28.452 466.516C26.508 468.124 23.952 468.928 20.784 468.928C18.864 468.928 17.22 468.532 15.852 467.74C14.508 466.948 13.668 465.76 13.332 464.176C13.356 463.912 13.56 463.672 13.944 463.456C14.352 463.24 14.64 463.132 14.808 463.132C15.36 463.132 15.684 463.264 15.78 463.528C16.044 464.704 16.764 465.616 17.94 466.264C19.116 466.888 20.46 467.2 21.972 467.2C24.204 467.2 25.956 466.564 27.228 465.292C28.524 464.02 29.172 462.532 29.172 460.828C29.172 458.5 26.304 457.336 20.568 457.336C20.376 457.336 20.184 457.336 19.992 457.336L15.96 457.516C15.6 457.516 15.3 457.432 15.06 457.264C14.844 457.096 14.796 456.832 14.916 456.472C15.06 456.112 15.252 454.984 15.492 453.088C15.756 451.168 15.888 449.656 15.888 448.552C15.888 448.552 15.864 448 15.816 446.896C15.816 446.248 15.972 445.864 16.284 445.744C16.62 445.6 17.436 445.528 18.732 445.528H21C23.064 445.528 25.488 445.576 28.272 445.672C28.92 445.672 29.34 445.828 29.532 446.14C29.724 446.428 29.688 446.716 29.424 447.004C29.184 447.292 28.836 447.436 28.38 447.436ZM36.7725 470.08C36.3405 470.08 35.8725 469.912 35.3685 469.576C34.8645 469.264 34.6125 468.88 34.6125 468.424C34.6125 467.968 34.8765 467.536 35.4045 467.128C35.9325 466.696 36.4725 466.48 37.0245 466.48C37.5765 466.48 38.0445 466.636 38.4285 466.948C38.8125 467.26 39.0045 467.656 39.0045 468.136C39.0045 468.592 38.7405 469.024 38.2125 469.432C37.7085 469.864 37.2285 470.08 36.7725 470.08Z" fill="white"/>
<path id="10." d="M217.228 444.592C219.388 444.592 220.468 447.208 220.468 452.44C220.468 454.84 220.204 459.976 219.676 467.848C219.652 468.088 219.436 468.316 219.028 468.532C218.62 468.724 218.332 468.82 218.164 468.82C217.612 468.82 217.3 468.7 217.228 468.46C217.204 467.908 217.192 467.008 217.192 465.76C217.192 464.512 217.276 462.232 217.444 458.92C217.612 455.608 217.696 453.136 217.696 451.504C217.696 448.168 217.3 446.5 216.508 446.5C215.956 446.5 215.104 447.004 213.952 448.012C213.64 448.324 213.184 448.48 212.584 448.48C211.984 448.48 211.66 448.324 211.612 448.012C211.612 447.388 212.308 446.668 213.7 445.852C215.116 445.012 216.292 444.592 217.228 444.592ZM227.88 446.968C228.552 446.104 229.44 445.408 230.544 444.88C231.672 444.328 232.956 444.052 234.396 444.052C237.228 444.052 239.628 445.3 241.596 447.796C243.588 450.268 244.584 453.196 244.584 456.58C244.584 458.788 244.104 460.9 243.144 462.916C242.208 464.908 240.828 466.552 239.004 467.848C237.18 469.144 235.08 469.792 232.704 469.792C230.352 469.792 228.492 468.736 227.124 466.624C225.78 464.488 225.108 461.272 225.108 456.976C225.108 452.68 226.032 449.344 227.88 446.968ZM232.92 467.956C234.696 467.956 236.292 467.368 237.708 466.192C239.148 464.992 240.228 463.516 240.948 461.764C241.692 459.988 242.064 458.26 242.064 456.58C242.064 454.876 241.668 453.232 240.876 451.648C240.108 450.04 239.04 448.696 237.672 447.616C236.304 446.536 234.876 445.996 233.388 445.996C232.332 445.996 231.396 446.356 230.58 447.076C229.788 447.796 229.188 448.72 228.78 449.848C227.964 452.032 227.556 454.3 227.556 456.652C227.556 457.996 227.664 459.388 227.88 460.828C228.096 462.244 228.372 463.42 228.708 464.356C229.044 465.268 229.572 466.096 230.292 466.84C231.036 467.584 231.912 467.956 232.92 467.956ZM249.448 470.08C249.016 470.08 248.548 469.912 248.044 469.576C247.54 469.264 247.288 468.88 247.288 468.424C247.288 467.968 247.552 467.536 248.08 467.128C248.608 466.696 249.148 466.48 249.7 466.48C250.252 466.48 250.72 466.636 251.104 466.948C251.488 467.26 251.68 467.656 251.68 468.136C251.68 468.592 251.416 469.024 250.888 469.432C250.384 469.864 249.904 470.08 249.448 470.08Z" fill="white"/>
<rect x="1.625" y="1.625" width="359.75" height="525.75" stroke="black" stroke-width="2"/>
</g>
</svg>
